<svg width="106" height="106" viewBox="0 0 106 106" fill="none" xmlns="http://www.w3.org/2000/svg">
<rect x="3" y="3" width="100" height="100" rx="50" fill="#7D7D7D" fill-opacity="0.5"/>
<rect x="1.5" y="1.5" width="103" height="103" rx="51.5" stroke="#7D7D7D" stroke-opacity="0.15" stroke-width="3"/>
<g clip-path="url(#clip0_295_2387)">
<path d="M53 50C56.3137 50 59 47.3137 59 44C59 40.6863 56.3137 38 53 38C49.6863 38 47 40.6863 47 44C47 47.3137 49.6863 50 53 50Z" stroke="#7D7D7D" stroke-width="2.25"/>
<path d="M65 61.25C65 64.9775 65 68 53 68C41 68 41 64.9775 41 61.25C41 57.5225 46.373 54.5 53 54.5C59.627 54.5 65 57.5225 65 61.25Z" stroke="#7D7D7D" stroke-width="2.25"/>
</g>
<defs>
<clipPath id="clip0_295_2387">
<rect width="36" height="36" fill="white" transform="translate(35 35)"/>
</clipPath>
</defs>
</svg>
