<svg width="106" height="106" viewBox="0 0 106 106" fill="none" xmlns="http://www.w3.org/2000/svg">
<rect x="3" y="3" width="100" height="100" rx="50" fill="#7D7D7D" fill-opacity="0.5"/>
<rect x="1.5" y="1.5" width="103" height="103" rx="51.5" stroke="#7D7D7D" stroke-opacity="0.15" stroke-width="3"/>
<path d="M40.25 51.5V56C40.25 61.6565 40.25 64.4855 42.008 66.242C43.766 67.9985 46.5935 68 52.25 68H53.75C59.4065 68 62.2355 68 63.992 66.242M65.75 51.5V56C65.75 57.755 65.75 59.237 65.6975 60.5" stroke="#7D7D7D" stroke-width="2.25" stroke-linecap="round"/>
<path d="M49.25 38H56.75M49.25 38L48.272 47.7755C48.2076 48.4351 48.2819 49.101 48.4902 49.7302C48.6985 50.3594 49.0361 50.9381 49.4814 51.429C49.9267 51.9199 50.4698 52.3122 51.0758 52.5806C51.6818 52.8491 52.3372 52.9878 53 52.9878C53.6628 52.9878 54.3183 52.8491 54.9243 52.5806C55.5302 52.3122 56.0733 51.9199 56.5186 51.429C56.9639 50.9381 57.3016 50.3594 57.5099 49.7302C57.7181 49.101 57.7925 48.4351 57.728 47.7755L56.75 38M49.25 38H46.127C44.765 38 44.084 38 43.499 38.1605C42.8906 38.3274 42.324 38.6203 41.8361 39.0204C41.3482 39.4204 40.9499 39.9186 40.667 40.4825M49.25 38L48.1625 48.8675C48.1051 49.4894 47.9214 50.0931 47.6226 50.6416C47.3238 51.1901 46.9162 51.6718 46.4248 52.0573C45.9333 52.4428 45.3684 52.7239 44.7645 52.8834C44.1607 53.043 43.5306 53.0776 42.9129 52.9852C42.2952 52.8928 41.7028 52.6753 41.1721 52.346C40.6413 52.0167 40.1834 51.5826 39.8263 51.0702C39.4691 50.5578 39.2204 49.9778 39.0951 49.3659C38.9699 48.754 38.9709 48.123 39.098 47.5115L39.2 47M56.75 38H59.873C61.235 38 61.916 38 62.501 38.1605C63.1095 38.3274 63.676 38.6203 64.1639 39.0204C64.6518 39.4204 65.0501 39.9186 65.333 40.4825C65.6045 41.0225 65.738 41.6915 66.005 43.0265L66.902 47.5115C67.0292 48.123 67.0301 48.754 66.9049 49.3659C66.7797 49.9778 66.5309 50.5578 66.1738 51.0702C65.8167 51.5826 65.3587 52.0167 64.828 52.346C64.2973 52.6753 63.7049 52.8928 63.0872 52.9852C62.4695 53.0776 61.8394 53.043 61.2355 52.8834C60.6317 52.7239 60.0667 52.4428 59.5753 52.0573C59.0839 51.6718 58.6763 51.1901 58.3774 50.6416C58.0786 50.0931 57.8949 49.4894 57.8375 48.8675L56.75 38ZM49.25 67.25V62.75C49.25 61.3475 49.25 60.647 49.5515 60.125C49.749 59.783 50.033 59.499 50.375 59.3015C50.897 59 51.5975 59 53 59C54.4025 59 55.103 59 55.625 59.3015C55.967 59.499 56.2511 59.783 56.4485 60.125C56.75 60.647 56.75 61.3475 56.75 62.75V67.25" stroke="#7D7D7D" stroke-width="2.25" stroke-linecap="round"/>
</svg>
