<svg width="100" height="103" viewBox="0 0 100 103" fill="none" xmlns="http://www.w3.org/2000/svg">
<path d="M50 3.28674L11 20.7413V46.9231C11 71.1413 27.64 93.7886 50 99.2867C72.36 93.7886 89 71.1413 89 46.9231V20.7413L50 3.28674Z" fill="#7D7D7D" fill-opacity="0.5"/>
<path d="M90.5 46.9235C90.4998 71.7631 73.4533 95.0648 50.3584 100.744L50 100.832L49.6416 100.744C26.5467 95.0648 9.50016 71.7631 9.5 46.9235V19.7692L10.3877 19.3717L49.3877 1.9176L50 1.64319L50.6123 1.9176L89.6123 19.3717L90.5 19.7692V46.9235Z" stroke="#7D7D7D" stroke-opacity="0.15" stroke-width="3"/>
<path opacity="0.5" d="M56 46.7867H44C43.6022 46.7867 43.2206 46.6287 42.9393 46.3474C42.658 46.0661 42.5 45.6846 42.5 45.2867V40.7867C42.5 38.7976 43.2902 36.89 44.6967 35.4834C46.1032 34.0769 48.0109 33.2867 50 33.2867C51.9891 33.2867 53.8968 34.0769 55.3033 35.4834C56.7098 36.89 57.5 38.7976 57.5 40.7867V45.2867C57.5 45.6846 57.342 46.0661 57.0607 46.3474C56.7794 46.6287 56.3978 46.7867 56 46.7867ZM45.5 43.7867H54.5V40.7867C54.5 39.5933 54.0259 38.4487 53.182 37.6048C52.3381 36.7608 51.1935 36.2867 50 36.2867C48.8065 36.2867 47.6619 36.7608 46.818 37.6048C45.9741 38.4487 45.5 39.5933 45.5 40.7867V43.7867Z" fill="#7D7D7D"/>
<path d="M57.5 43.7867C59.9853 43.7867 62 45.8015 62 48.2867V58.7867C62 61.272 59.9853 63.2867 57.5 63.2867H42.5C40.0147 63.2867 38 61.272 38 58.7867V48.2867C38 45.8015 40.0147 43.7867 42.5 43.7867H57.5ZM50 49.7867C49.3396 49.7868 48.6977 50.0049 48.1738 50.4069C47.6499 50.8089 47.2735 51.3725 47.1025 52.0104C46.9316 52.6482 46.9758 53.3251 47.2285 53.9352C47.4812 54.5451 47.9283 55.0543 48.5 55.3844V57.2867L48.5107 57.4625C48.556 57.842 48.7441 58.1899 49.0371 58.4352C49.3303 58.6806 49.7062 58.8052 50.0879 58.7828C50.4695 58.7604 50.8284 58.593 51.0908 58.3151C51.3533 58.0371 51.4996 57.6691 51.5 57.2867V55.3844L51.7012 55.2574C52.2281 54.8944 52.6248 54.3719 52.834 53.7672C53.0431 53.1626 53.0532 52.5071 52.8633 51.8961C52.6733 51.2853 52.2933 50.7512 51.7783 50.3717C51.2631 49.9923 50.6398 49.787 50 49.7867Z" fill="#7D7D7D"/>
</svg>
