<svg width="512" height="512" viewBox="0 0 512 512" fill="none" xmlns="http://www.w3.org/2000/svg">
<rect width="512" height="512" rx="25" fill="white"/>
<path d="M456.143 207.662C460.203 206.684 464.323 209.032 465.551 213.022C473.319 238.269 473.319 265.267 465.551 290.514C464.323 294.505 460.203 296.852 456.143 295.874L352.763 270.963C348.961 270.047 346.282 266.645 346.282 262.735L346.282 240.802C346.282 236.891 348.961 233.489 352.763 232.573L456.143 207.662Z" fill="#FF55A0"/>
<path d="M370.181 93.8649C372.36 90.3029 376.933 89.0497 380.623 91.0033C403.968 103.362 423.059 122.453 435.418 145.798C437.371 149.488 436.118 154.061 432.556 156.24L341.84 211.726C338.504 213.767 334.204 213.256 331.439 210.491L329.988 209.04C329.309 208.361 328.84 207.501 328.637 206.562L327.427 200.972C327.169 199.78 326.214 198.862 325.013 198.651L320.003 197.773C318.991 197.595 318.058 197.11 317.331 196.383L315.93 194.982C313.165 192.217 312.654 187.917 314.694 184.581L370.181 93.8649Z" fill="#FF55A0"/>
<path d="M233.759 72.0789C232.781 68.0197 235.129 63.8997 239.12 62.6717C264.366 54.9036 291.364 54.9036 316.611 62.6717C320.602 63.8997 322.949 68.0197 321.971 72.0789L297.06 175.46C296.144 179.261 292.742 181.941 288.832 181.941H266.899C262.988 181.941 259.586 179.261 258.67 175.46L233.759 72.0789Z" fill="#FF55A0"/>
<path d="M374.413 412.101C376.592 415.663 381.165 416.916 384.855 414.963C408.2 402.604 427.291 383.513 439.65 360.168C441.603 356.478 440.35 351.905 436.788 349.726L346.072 294.24C342.736 292.199 338.436 292.71 335.671 295.475L320.162 310.984C317.397 313.749 316.886 318.049 318.927 321.385L374.413 412.101Z" fill="#FF55A0"/>
<path d="M233.589 440.009C232.702 444.04 235.056 448.078 239.001 449.292C264.325 457.084 291.406 457.084 316.73 449.292C320.675 448.078 323.029 444.04 322.142 440.009L302.181 349.29C302.05 348.695 301.523 348.272 300.915 348.272C300.645 348.272 300.382 348.357 300.162 348.514L294.662 352.442C289.722 355.971 283.142 356.174 277.994 352.956L271.186 348.701C270.738 348.421 270.22 348.272 269.691 348.272H256.042C254.717 348.272 253.571 349.194 253.286 350.487L233.589 440.009Z" fill="#FF55A0"/>
<path d="M152.318 134.002C140.139 134.002 130.744 140.238 124.724 148.516C120.583 154.216 117.904 160.866 116.651 167.408H123.088C124.272 162.119 126.533 156.701 129.804 152.198C134.92 145.165 142.227 140.266 152.318 140.266C162.409 140.266 169.717 145.165 174.832 152.198C178.103 156.701 180.365 162.119 181.548 167.408H187.985C186.733 160.866 184.053 154.216 179.912 148.516C173.892 140.238 164.497 134.002 152.318 134.002ZM93.9457 173.671L83.3534 295.462H179.458L163.843 227.868C163.011 224.266 165.746 220.827 169.442 220.827H214.305L210.708 173.671H93.9457ZM118.913 181.675C120.389 181.675 121.806 182.261 122.85 183.305C123.894 184.35 124.48 185.766 124.48 187.242C124.48 188.719 123.894 190.135 122.85 191.179C121.806 192.223 120.389 192.81 118.913 192.81C117.436 192.81 116.02 192.223 114.976 191.179C113.932 190.135 113.345 188.719 113.345 187.242C113.345 185.766 113.932 184.35 114.976 183.305C116.02 182.261 117.436 181.675 118.913 181.675ZM185.724 181.675C187.2 181.675 188.616 182.261 189.66 183.305C190.705 184.35 191.291 185.766 191.291 187.242C191.291 188.719 190.705 190.135 189.66 191.179C188.616 192.223 187.2 192.81 185.724 192.81C184.247 192.81 182.831 192.223 181.787 191.179C180.743 190.135 180.156 188.719 180.156 187.242C180.156 185.766 180.743 184.35 181.787 183.305C182.831 182.261 184.247 181.675 185.724 181.675Z" fill="#FF55A0"/>
<path d="M303.532 292.609H284.559V302.222H303.532C306.061 302.222 308.338 304.246 308.338 307.029C308.338 309.811 306.314 311.835 303.532 311.835H185.141C182.611 311.835 180.334 313.859 180.334 316.642C180.334 319.171 182.358 321.448 185.141 321.448H303.785C311.627 321.448 317.951 315.124 317.951 307.282C317.951 298.934 311.374 292.609 303.532 292.609ZM307.073 259.976L297.713 259.217C297.713 258.964 303.532 224.307 304.797 217.224C305.555 213.176 307.073 201.792 321.493 201.792V211.405C315.674 211.405 314.915 213.682 314.41 217.983C312.892 225.066 307.073 259.47 307.073 259.976Z" fill="#B2C1C0"/>
<path d="M307.579 226.076H179.322C174.516 226.076 173.757 230.63 174.516 233.159L188.935 297.414C189.694 299.944 192.224 301.968 195.006 301.968H295.689C298.219 301.968 300.749 299.944 301.255 297.161L311.879 230.63C312.132 228.353 310.109 226.076 307.579 226.076ZM186.658 247.579L184.129 237.966C183.876 236.701 184.635 235.689 185.899 235.689H203.86C205.125 235.689 206.39 236.701 206.39 237.966L207.402 247.579C207.655 248.844 206.643 249.856 205.378 249.856H189.441C188.176 249.856 186.911 248.844 186.658 247.579ZM194.753 271.105C193.489 271.105 192.224 270.093 191.718 268.828L189.947 261.492C189.694 260.227 190.453 259.215 191.718 259.215H206.137C207.402 259.215 208.667 260.227 208.667 261.492L209.426 268.575C209.679 269.84 208.667 270.852 207.402 270.852C207.655 271.105 194.753 271.105 194.753 271.105ZM209.932 292.608H200.066C198.801 292.608 197.536 291.596 197.03 290.331L195.259 282.995C195.006 281.73 195.765 280.718 197.03 280.718H208.414C209.679 280.718 210.944 281.73 210.944 282.995L211.703 290.078C212.209 291.343 211.197 292.608 209.932 292.608ZM239.024 290.078C239.024 291.343 238.012 292.355 236.747 292.355H224.351C223.086 292.355 221.821 291.343 221.821 290.078L221.063 282.995C220.81 281.73 221.821 280.718 223.086 280.718H236.747C238.012 280.718 239.024 281.73 239.024 282.995V290.078ZM239.024 268.828C239.024 270.093 238.012 271.105 236.747 271.105H222.074C220.81 271.105 219.545 270.093 219.545 268.828L218.786 261.745C218.533 260.48 219.545 259.468 220.81 259.468H236.747C238.012 259.468 239.024 260.48 239.024 261.745V268.828ZM239.024 247.579C239.024 248.844 238.012 249.856 236.747 249.856H219.798C218.533 249.856 217.268 248.844 217.268 247.579L216.003 237.966C215.75 236.701 216.762 235.689 218.027 235.689H236.494C237.759 235.689 238.771 236.701 238.771 237.966C239.024 237.966 239.024 247.579 239.024 247.579ZM264.827 290.078C264.574 291.343 263.562 292.355 262.297 292.355H251.166C249.901 292.355 248.889 291.343 248.889 290.078V282.995C248.889 281.73 249.901 280.718 251.166 280.718H263.562C264.827 280.718 265.839 281.73 265.586 282.995L264.827 290.078ZM267.103 268.828C266.85 270.093 265.839 271.105 264.574 271.105H251.166C249.901 271.105 248.889 270.093 248.889 268.828V261.745C248.889 260.48 249.901 259.468 251.166 259.468H265.839C267.103 259.468 268.115 260.48 267.862 261.745L267.103 268.828ZM269.38 247.579C269.127 248.844 268.115 249.856 266.85 249.856H251.166C249.901 249.856 248.889 248.844 248.889 247.579V237.966C248.889 236.701 249.901 235.689 251.166 235.689H268.368C269.633 235.689 270.645 236.701 270.392 237.966L269.38 247.579ZM291.389 290.078C291.136 291.343 289.871 292.355 288.606 292.355H276.463C275.199 292.355 274.187 291.343 274.44 290.078L275.199 282.995C275.452 281.73 276.463 280.718 277.728 280.718H290.63C291.895 280.718 292.907 281.73 292.654 282.995L291.389 290.078ZM294.677 268.828C294.424 270.093 293.16 271.105 291.895 271.105H278.487C277.222 271.105 276.21 270.093 276.463 268.828L277.222 261.745C277.475 260.48 278.487 259.468 279.752 259.468H293.665C294.93 259.468 295.942 260.48 295.689 261.745L294.677 268.828ZM297.966 247.579C297.713 248.844 296.448 249.856 295.183 249.856H280.764C279.499 249.856 278.487 248.844 278.74 247.579L279.752 237.966C280.005 236.701 281.017 235.689 282.282 235.689H297.207C298.472 235.689 299.484 236.701 299.231 237.966L297.966 247.579Z" fill="#FF55A0"/>
<path d="M200.319 351.806C208.143 351.806 214.485 345.463 214.485 337.64C214.485 329.816 208.143 323.473 200.319 323.473C192.495 323.473 186.153 329.816 186.153 337.64C186.153 345.463 192.495 351.806 200.319 351.806Z" fill="#62727A"/>
<path d="M200.319 344.724C204.231 344.724 207.403 341.552 207.403 337.64C207.403 333.728 204.231 330.557 200.319 330.557C196.407 330.557 193.236 333.728 193.236 337.64C193.236 341.552 196.407 344.724 200.319 344.724Z" fill="white"/>
<path d="M285.824 351.806C293.648 351.806 299.99 345.463 299.99 337.64C299.99 329.816 293.648 323.473 285.824 323.473C278 323.473 271.657 329.816 271.657 337.64C271.657 345.463 278 351.806 285.824 351.806Z" fill="#62727A"/>
<path d="M292.907 337.64C292.907 341.688 289.618 344.724 285.824 344.724C281.776 344.724 278.741 341.435 278.741 337.64C278.741 333.593 282.029 330.557 285.824 330.557C289.618 330.557 292.907 333.593 292.907 337.64Z" fill="white"/>
<path d="M323.769 200.025H316.686V214.191H323.769C325.034 214.191 326.046 213.179 326.046 211.915V202.302C326.046 201.037 325.034 200.025 323.769 200.025Z" fill="#FF55A0"/>
<path d="M200.319 318.667C189.947 318.667 181.346 327.268 181.346 337.64H219.292C219.292 327.015 210.944 318.667 200.319 318.667ZM285.824 318.667C275.452 318.667 266.851 327.268 266.851 337.64H304.797C304.797 327.015 296.195 318.667 285.824 318.667Z" fill="#FF55A0"/>
</svg>
