<svg width="2424" height="2424" viewBox="0 0 2424 2424" fill="none" xmlns="http://www.w3.org/2000/svg">
<circle cx="1212" cy="1212" r="1212" fill="#7D7D7D" fill-opacity="0.5"/>
<circle cx="1212" cy="1212" r="1211" stroke="#7D7D7D" stroke-opacity="0.5" stroke-width="2"/>
<path d="M1147.9 529.584C1197.27 508.923 1246.97 500.64 1293.26 513.043C1322.25 520.811 1355.18 542.833 1389.97 575.736C1424.79 608.658 1461.56 652.552 1498.22 704.194C1571.55 807.481 1644.53 941.844 1700.68 1081.62C1756.83 1221.39 1796.18 1366.63 1802.22 1491.67C1808.25 1616.67 1781 1721.75 1703.61 1780.8C1607.2 1854.36 1529.15 1889.19 1467.17 1895.88C1405.13 1902.58 1359.23 1881.05 1327.29 1842.08C1295.39 1803.17 1277.46 1746.93 1271.08 1684.24C1264.69 1621.53 1269.85 1552.26 1284.21 1487.19C1297.06 1428.95 1256.04 1366 1196.69 1366H1047.93C996.862 1366 958.479 1412.71 964.478 1463.52C976.736 1567.37 978.775 1689.26 951.728 1780.54C938.202 1826.19 917.372 1864.29 886.804 1888.61C856.199 1912.97 815.951 1923.42 763.822 1913.99C702.455 1902.88 661.607 1848.47 638.051 1768.83C614.484 1689.16 608.119 1583.93 615.928 1470.56C631.543 1243.83 703.873 984.14 809.175 830.444C839.024 786.878 913.836 695.23 1004.22 620.624C1049.41 583.32 1098.53 550.246 1147.9 529.584ZM1277 747.984C1193 683.997 1126 802.991 1067 885.988C975 1062.99 1105 1187.98 1277 1102.98C1449 1017.98 1400.2 841.831 1277 747.984Z" fill="#7D7D7D"/>
</svg>
